<svg xmlns="http://www.w3.org/2000/svg" viewBox="0 0 700 216" width="700" height="216">
  <style>
    text { font-family: 'Segoe UI', Ubuntu, Helvetica, Arial, sans-serif; }
    .hud { font-family: 'Courier New', monospace; font-weight: 700; }
    .cursor { animation: blink 1.2s steps(1) infinite; }
    @keyframes blink { 0%, 49% { opacity: 1; } 50%, 100% { opacity: 0; } }
    .fade { opacity: 0; animation: fadein 0.6s ease-out forwards; }
    @keyframes fadein { to { opacity: 1; } }
  </style>

  <rect width="700" height="216" rx="12" fill="#0f172a"/>
  <rect x="0.5" y="0.5" width="699" height="215" rx="12" fill="none" stroke="#334155"/>
  <circle cx="60" cy="64" r="1" fill="#1e293b"/><circle cx="60" cy="98" r="1" fill="#1e293b"/><circle cx="60" cy="132" r="1" fill="#1e293b"/><circle cx="60" cy="166" r="1" fill="#1e293b"/><circle cx="94" cy="64" r="1" fill="#1e293b"/><circle cx="94" cy="98" r="1" fill="#1e293b"/><circle cx="94" cy="132" r="1" fill="#1e293b"/><circle cx="94" cy="166" r="1" fill="#1e293b"/><circle cx="128" cy="64" r="1" fill="#1e293b"/><circle cx="128" cy="98" r="1" fill="#1e293b"/><circle cx="128" cy="132" r="1" fill="#1e293b"/><circle cx="128" cy="166" r="1" fill="#1e293b"/><circle cx="162" cy="64" r="1" fill="#1e293b"/><circle cx="162" cy="98" r="1" fill="#1e293b"/><circle cx="162" cy="132" r="1" fill="#1e293b"/><circle cx="162" cy="166" r="1" fill="#1e293b"/><circle cx="196" cy="64" r="1" fill="#1e293b"/><circle cx="196" cy="98" r="1" fill="#1e293b"/><circle cx="196" cy="132" r="1" fill="#1e293b"/><circle cx="196" cy="166" r="1" fill="#1e293b"/><circle cx="230" cy="64" r="1" fill="#1e293b"/><circle cx="230" cy="98" r="1" fill="#1e293b"/><circle cx="230" cy="132" r="1" fill="#1e293b"/><circle cx="230" cy="166" r="1" fill="#1e293b"/><circle cx="264" cy="64" r="1" fill="#1e293b"/><circle cx="264" cy="98" r="1" fill="#1e293b"/><circle cx="264" cy="132" r="1" fill="#1e293b"/><circle cx="264" cy="166" r="1" fill="#1e293b"/><circle cx="298" cy="64" r="1" fill="#1e293b"/><circle cx="298" cy="98" r="1" fill="#1e293b"/><circle cx="298" cy="132" r="1" fill="#1e293b"/><circle cx="298" cy="166" r="1" fill="#1e293b"/><circle cx="332" cy="64" r="1" fill="#1e293b"/><circle cx="332" cy="98" r="1" fill="#1e293b"/><circle cx="332" cy="132" r="1" fill="#1e293b"/><circle cx="332" cy="166" r="1" fill="#1e293b"/><circle cx="366" cy="64" r="1" fill="#1e293b"/><circle cx="366" cy="98" r="1" fill="#1e293b"/><circle cx="366" cy="132" r="1" fill="#1e293b"/><circle cx="366" cy="166" r="1" fill="#1e293b"/><circle cx="400" cy="64" r="1" fill="#1e293b"/><circle cx="400" cy="98" r="1" fill="#1e293b"/><circle cx="400" cy="132" r="1" fill="#1e293b"/><circle cx="400" cy="166" r="1" fill="#1e293b"/><circle cx="434" cy="64" r="1" fill="#1e293b"/><circle cx="434" cy="98" r="1" fill="#1e293b"/><circle cx="434" cy="132" r="1" fill="#1e293b"/><circle cx="434" cy="166" r="1" fill="#1e293b"/><circle cx="468" cy="64" r="1" fill="#1e293b"/><circle cx="468" cy="98" r="1" fill="#1e293b"/><circle cx="468" cy="132" r="1" fill="#1e293b"/><circle cx="468" cy="166" r="1" fill="#1e293b"/><circle cx="502" cy="64" r="1" fill="#1e293b"/><circle cx="502" cy="98" r="1" fill="#1e293b"/><circle cx="502" cy="132" r="1" fill="#1e293b"/><circle cx="502" cy="166" r="1" fill="#1e293b"/><circle cx="536" cy="64" r="1" fill="#1e293b"/><circle cx="536" cy="98" r="1" fill="#1e293b"/><circle cx="536" cy="132" r="1" fill="#1e293b"/><circle cx="536" cy="166" r="1" fill="#1e293b"/><circle cx="570" cy="64" r="1" fill="#1e293b"/><circle cx="570" cy="98" r="1" fill="#1e293b"/><circle cx="570" cy="132" r="1" fill="#1e293b"/><circle cx="570" cy="166" r="1" fill="#1e293b"/><circle cx="604" cy="64" r="1" fill="#1e293b"/><circle cx="604" cy="98" r="1" fill="#1e293b"/><circle cx="604" cy="132" r="1" fill="#1e293b"/><circle cx="604" cy="166" r="1" fill="#1e293b"/><circle cx="638" cy="64" r="1" fill="#1e293b"/><circle cx="638" cy="98" r="1" fill="#1e293b"/><circle cx="638" cy="132" r="1" fill="#1e293b"/><circle cx="638" cy="166" r="1" fill="#1e293b"/>
  <circle cx="26" cy="24" r="5" fill="#F87171"/>
  <circle cx="44" cy="24" r="5" fill="#F59E0B"/>
  <circle cx="62" cy="24" r="5" fill="#34D399"/>
  <text class="hud" x="350.0" y="29" font-size="12" fill="#64748b" text-anchor="middle">ahmad@fireflystack:~$ ./welcome.sh</text>
  <line x1="1" y1="42" x2="699" y2="42" stroke="#334155"/>
  <text class="hud fade" x="32" y="80" font-size="12" fill="#64748b">&gt; hello, world &#8212; glad you&#8217;re here</text>
  <text class="fade" style="animation-delay:.25s" x="32" y="122" font-size="32" font-weight="700" fill="#f8fafc">Ahmad Mustafa Jebran</text>
  <text class="fade" style="animation-delay:.5s" x="32" y="152" font-size="15">
    <tspan fill="#e2e8f0">Software Engineer</tspan><tspan fill="#475569"> &#183; </tspan><tspan fill="#e2e8f0">Founder @ </tspan><tspan fill="#F59E0B" font-weight="700">FireFly Stack LLC</tspan>
  </text>
  <text class="hud fade" style="animation-delay:.75s" x="32" y="184" font-size="12" fill="#64748b">utah, usa</text>
  <text class="hud cursor" x="108" y="184" font-size="12" fill="#34D399">&#9608;</text>
  <g class="fade" style="animation-delay:1s"><rect x="562" y="174" width="10" height="10" rx="2.5" fill="#F87171"/><rect x="578" y="174" width="10" height="10" rx="2.5" fill="#F59E0B"/><rect x="594" y="174" width="10" height="10" rx="2.5" fill="#34D399"/><rect x="610" y="174" width="10" height="10" rx="2.5" fill="#60A5FA"/><rect x="626" y="174" width="10" height="10" rx="2.5" fill="#A78BFA"/><rect x="642" y="174" width="10" height="10" rx="2.5" fill="#22D3EE"/><rect x="658" y="174" width="10" height="10" rx="2.5" fill="#F472B6"/></g>
</svg>
